<mxfile host="app.diagrams.net" agent="Mozilla/5.0 (Macintosh; Intel Mac OS X 10_15_7) AppleWebKit/537.36 (KHTML, like Gecko) Chrome/132.0.0.0 Safari/537.36" version="26.0.11">
  <diagram id="R2lEEEUBdFMjLlhIrx00" name="Page-1">
    <mxGraphModel dx="1277" dy="606" grid="1" gridSize="10" guides="1" tooltips="1" connect="1" arrows="1" fold="1" page="1" pageScale="1" pageWidth="850" pageHeight="1100" math="0" shadow="0" extFonts="Permanent Marker^https://fonts.googleapis.com/css?family=Permanent+Marker">
      <root>
        <mxCell id="0" />
        <mxCell id="1" parent="0" />
        <mxCell id="jSTN_1CuGeqP3LovvceV-1" value="course" style="whiteSpace=wrap;html=1;align=center;" vertex="1" parent="1">
          <mxGeometry x="650" y="230" width="100" height="40" as="geometry" />
        </mxCell>
        <mxCell id="jSTN_1CuGeqP3LovvceV-2" value="&lt;span style=&quot;border-bottom: 1px dotted&quot;&gt;description&lt;/span&gt;" style="ellipse;whiteSpace=wrap;html=1;align=center;" vertex="1" parent="1">
          <mxGeometry x="710" y="130" width="100" height="40" as="geometry" />
        </mxCell>
        <mxCell id="jSTN_1CuGeqP3LovvceV-3" value="&lt;span style=&quot;border-bottom: 1px dotted&quot;&gt;name&lt;/span&gt;" style="ellipse;whiteSpace=wrap;html=1;align=center;fontStyle=4" vertex="1" parent="1">
          <mxGeometry x="575" y="130" width="100" height="40" as="geometry" />
        </mxCell>
        <mxCell id="jSTN_1CuGeqP3LovvceV-6" value="&lt;span style=&quot;border-bottom: 1px dotted&quot;&gt;number&lt;/span&gt;" style="ellipse;whiteSpace=wrap;html=1;align=center;" vertex="1" parent="1">
          <mxGeometry x="580" y="530" width="100" height="40" as="geometry" />
        </mxCell>
        <mxCell id="jSTN_1CuGeqP3LovvceV-7" value="&lt;span style=&quot;border-bottom: 1px dotted&quot;&gt;par&lt;/span&gt;" style="ellipse;whiteSpace=wrap;html=1;align=center;" vertex="1" parent="1">
          <mxGeometry x="710" y="530" width="100" height="40" as="geometry" />
        </mxCell>
        <mxCell id="jSTN_1CuGeqP3LovvceV-8" value="game" style="whiteSpace=wrap;html=1;align=center;" vertex="1" parent="1">
          <mxGeometry x="370" y="290" width="100" height="40" as="geometry" />
        </mxCell>
        <mxCell id="jSTN_1CuGeqP3LovvceV-9" value="golfer" style="whiteSpace=wrap;html=1;align=center;" vertex="1" parent="1">
          <mxGeometry x="90" y="280" width="100" height="40" as="geometry" />
        </mxCell>
        <mxCell id="jSTN_1CuGeqP3LovvceV-10" value="score" style="whiteSpace=wrap;html=1;align=center;" vertex="1" parent="1">
          <mxGeometry x="240" y="440" width="100" height="40" as="geometry" />
        </mxCell>
        <mxCell id="jSTN_1CuGeqP3LovvceV-11" value="&lt;span style=&quot;border-bottom: 1px dotted&quot;&gt;strokes&lt;/span&gt;" style="ellipse;whiteSpace=wrap;html=1;align=center;" vertex="1" parent="1">
          <mxGeometry x="240" y="520" width="100" height="40" as="geometry" />
        </mxCell>
        <mxCell id="jSTN_1CuGeqP3LovvceV-13" value="played on" style="shape=rhombus;perimeter=rhombusPerimeter;whiteSpace=wrap;html=1;align=center;" vertex="1" parent="1">
          <mxGeometry x="530" y="250" width="60" height="40" as="geometry" />
        </mxCell>
        <mxCell id="jSTN_1CuGeqP3LovvceV-14" value="played by" style="shape=rhombus;perimeter=rhombusPerimeter;whiteSpace=wrap;html=1;align=center;" vertex="1" parent="1">
          <mxGeometry x="240" y="285" width="70" height="50" as="geometry" />
        </mxCell>
        <mxCell id="jSTN_1CuGeqP3LovvceV-15" value="&lt;span style=&quot;border-bottom: 1px dotted&quot;&gt;&lt;u&gt;id&lt;/u&gt;&lt;/span&gt;" style="ellipse;whiteSpace=wrap;html=1;align=center;" vertex="1" parent="1">
          <mxGeometry x="360" y="210" width="50" height="30" as="geometry" />
        </mxCell>
        <mxCell id="jSTN_1CuGeqP3LovvceV-16" value="&lt;span style=&quot;border-bottom: 1px dotted&quot;&gt;comments&lt;/span&gt;" style="ellipse;whiteSpace=wrap;html=1;align=center;" vertex="1" parent="1">
          <mxGeometry x="420" y="205" width="80" height="40" as="geometry" />
        </mxCell>
        <mxCell id="jSTN_1CuGeqP3LovvceV-17" value="&lt;span style=&quot;border-bottom: 1px dotted&quot;&gt;name&lt;/span&gt;" style="ellipse;whiteSpace=wrap;html=1;align=center;fontStyle=4" vertex="1" parent="1">
          <mxGeometry y="200" width="100" height="40" as="geometry" />
        </mxCell>
        <mxCell id="jSTN_1CuGeqP3LovvceV-19" value="&lt;span style=&quot;border-bottom: 1px dotted&quot;&gt;address&lt;/span&gt;" style="ellipse;whiteSpace=wrap;html=1;align=center;fontStyle=4" vertex="1" parent="1">
          <mxGeometry x="140" y="200" width="100" height="40" as="geometry" />
        </mxCell>
        <mxCell id="jSTN_1CuGeqP3LovvceV-20" value="&lt;span style=&quot;border-bottom: 1px dotted&quot;&gt;handicap&lt;/span&gt;" style="ellipse;whiteSpace=wrap;html=1;align=center;" vertex="1" parent="1">
          <mxGeometry x="20" y="360" width="100" height="40" as="geometry" />
        </mxCell>
        <mxCell id="jSTN_1CuGeqP3LovvceV-21" value="&lt;span style=&quot;border-bottom: 1px dotted&quot;&gt;start time&lt;/span&gt;" style="ellipse;whiteSpace=wrap;html=1;align=center;" vertex="1" parent="1">
          <mxGeometry x="580" y="327.5" width="50" height="35" as="geometry" />
        </mxCell>
        <mxCell id="jSTN_1CuGeqP3LovvceV-22" value="&lt;span style=&quot;border-bottom: 1px dotted&quot;&gt;date&lt;/span&gt;" style="ellipse;whiteSpace=wrap;html=1;align=center;" vertex="1" parent="1">
          <mxGeometry x="500" y="330" width="60" height="30" as="geometry" />
        </mxCell>
        <mxCell id="jSTN_1CuGeqP3LovvceV-23" value="" style="endArrow=none;html=1;rounded=0;entryX=0.5;entryY=0;entryDx=0;entryDy=0;exitX=0.5;exitY=1;exitDx=0;exitDy=0;" edge="1" parent="1" source="jSTN_1CuGeqP3LovvceV-17" target="jSTN_1CuGeqP3LovvceV-9">
          <mxGeometry relative="1" as="geometry">
            <mxPoint x="60" y="250" as="sourcePoint" />
            <mxPoint x="220" y="250" as="targetPoint" />
          </mxGeometry>
        </mxCell>
        <mxCell id="jSTN_1CuGeqP3LovvceV-25" value="" style="endArrow=none;html=1;rounded=0;exitX=0.5;exitY=1;exitDx=0;exitDy=0;entryX=0.5;entryY=0;entryDx=0;entryDy=0;" edge="1" parent="1" source="jSTN_1CuGeqP3LovvceV-19" target="jSTN_1CuGeqP3LovvceV-9">
          <mxGeometry relative="1" as="geometry">
            <mxPoint x="340" y="310" as="sourcePoint" />
            <mxPoint x="500" y="310" as="targetPoint" />
          </mxGeometry>
        </mxCell>
        <mxCell id="jSTN_1CuGeqP3LovvceV-26" value="hole" style="shape=ext;margin=3;double=1;whiteSpace=wrap;html=1;align=center;" vertex="1" parent="1">
          <mxGeometry x="650" y="440" width="100" height="40" as="geometry" />
        </mxCell>
        <mxCell id="jSTN_1CuGeqP3LovvceV-27" value="has" style="shape=rhombus;double=1;perimeter=rhombusPerimeter;whiteSpace=wrap;html=1;align=center;" vertex="1" parent="1">
          <mxGeometry x="650" y="335" width="100" height="55" as="geometry" />
        </mxCell>
        <mxCell id="jSTN_1CuGeqP3LovvceV-28" value="" style="endArrow=none;html=1;rounded=0;entryX=0.5;entryY=0;entryDx=0;entryDy=0;exitX=0.5;exitY=1;exitDx=0;exitDy=0;" edge="1" parent="1" source="jSTN_1CuGeqP3LovvceV-27" target="jSTN_1CuGeqP3LovvceV-26">
          <mxGeometry relative="1" as="geometry">
            <mxPoint x="545" y="410" as="sourcePoint" />
            <mxPoint x="705" y="410" as="targetPoint" />
          </mxGeometry>
        </mxCell>
        <mxCell id="jSTN_1CuGeqP3LovvceV-30" value="1..1" style="resizable=0;html=1;whiteSpace=wrap;align=right;verticalAlign=bottom;" connectable="0" vertex="1" parent="jSTN_1CuGeqP3LovvceV-28">
          <mxGeometry x="1" relative="1" as="geometry" />
        </mxCell>
        <mxCell id="jSTN_1CuGeqP3LovvceV-31" value="" style="endArrow=none;html=1;rounded=0;entryX=0.5;entryY=1;entryDx=0;entryDy=0;exitX=0.5;exitY=0;exitDx=0;exitDy=0;" edge="1" parent="1" source="jSTN_1CuGeqP3LovvceV-27" target="jSTN_1CuGeqP3LovvceV-1">
          <mxGeometry relative="1" as="geometry">
            <mxPoint x="520" y="290" as="sourcePoint" />
            <mxPoint x="680" y="290" as="targetPoint" />
          </mxGeometry>
        </mxCell>
        <mxCell id="jSTN_1CuGeqP3LovvceV-32" value="3..9" style="resizable=0;html=1;whiteSpace=wrap;align=right;verticalAlign=bottom;" connectable="0" vertex="1" parent="jSTN_1CuGeqP3LovvceV-31">
          <mxGeometry x="1" relative="1" as="geometry">
            <mxPoint y="20" as="offset" />
          </mxGeometry>
        </mxCell>
        <mxCell id="jSTN_1CuGeqP3LovvceV-33" value="" style="endArrow=none;html=1;rounded=0;entryX=0.5;entryY=1;entryDx=0;entryDy=0;exitX=0.5;exitY=0;exitDx=0;exitDy=0;" edge="1" parent="1" source="jSTN_1CuGeqP3LovvceV-1" target="jSTN_1CuGeqP3LovvceV-3">
          <mxGeometry relative="1" as="geometry">
            <mxPoint x="340" y="310" as="sourcePoint" />
            <mxPoint x="500" y="310" as="targetPoint" />
          </mxGeometry>
        </mxCell>
        <mxCell id="jSTN_1CuGeqP3LovvceV-34" value="" style="endArrow=none;html=1;rounded=0;exitX=0.5;exitY=1;exitDx=0;exitDy=0;entryX=0.5;entryY=0;entryDx=0;entryDy=0;" edge="1" parent="1" source="jSTN_1CuGeqP3LovvceV-2" target="jSTN_1CuGeqP3LovvceV-1">
          <mxGeometry relative="1" as="geometry">
            <mxPoint x="600" y="199" as="sourcePoint" />
            <mxPoint x="760" y="199" as="targetPoint" />
          </mxGeometry>
        </mxCell>
        <mxCell id="jSTN_1CuGeqP3LovvceV-35" value="" style="endArrow=none;html=1;rounded=0;entryX=0;entryY=0.5;entryDx=0;entryDy=0;exitX=1;exitY=0.5;exitDx=0;exitDy=0;" edge="1" parent="1" source="jSTN_1CuGeqP3LovvceV-13" target="jSTN_1CuGeqP3LovvceV-1">
          <mxGeometry relative="1" as="geometry">
            <mxPoint x="340" y="310" as="sourcePoint" />
            <mxPoint x="500" y="310" as="targetPoint" />
          </mxGeometry>
        </mxCell>
        <mxCell id="jSTN_1CuGeqP3LovvceV-36" value="0..*" style="resizable=0;html=1;whiteSpace=wrap;align=right;verticalAlign=bottom;rotation=-15;" connectable="0" vertex="1" parent="jSTN_1CuGeqP3LovvceV-35">
          <mxGeometry x="1" relative="1" as="geometry" />
        </mxCell>
        <mxCell id="jSTN_1CuGeqP3LovvceV-39" value="" style="endArrow=none;html=1;rounded=0;entryX=0;entryY=0.5;entryDx=0;entryDy=0;exitX=1;exitY=0.5;exitDx=0;exitDy=0;" edge="1" parent="1" source="jSTN_1CuGeqP3LovvceV-8" target="jSTN_1CuGeqP3LovvceV-13">
          <mxGeometry relative="1" as="geometry">
            <mxPoint x="340" y="310" as="sourcePoint" />
            <mxPoint x="500" y="310" as="targetPoint" />
          </mxGeometry>
        </mxCell>
        <mxCell id="jSTN_1CuGeqP3LovvceV-40" value="1..1" style="resizable=0;html=1;whiteSpace=wrap;align=right;verticalAlign=bottom;rotation=-30;" connectable="0" vertex="1" parent="jSTN_1CuGeqP3LovvceV-39">
          <mxGeometry x="1" relative="1" as="geometry">
            <mxPoint x="-30" y="20" as="offset" />
          </mxGeometry>
        </mxCell>
      </root>
    </mxGraphModel>
  </diagram>
</mxfile>
